<?xml version="1.0" standalone="no"?>
<!DOCTYPE svg PUBLIC "-//W3C//DTD SVG 20010904//EN"
"http://www.w3.org/TR/2001/REC-SVG-20010904/DTD/svg10.dtd">
<svg version="1.0" xmlns="http://www.w3.org/2000/svg"
width="300.000000pt" height="300.000000pt" viewBox="0 0 300.000000 300.000000"
preserveAspectRatio="xMidYMid meet">
<metadata>
Created by potrace 1.10, written by Peter Selinger 2001-2011
</metadata>
<g transform="translate(0.000000,300.000000) scale(0.100000,-0.100000)"
fill="#000000" stroke="none">
<path d="M1296 2494 c-391 -87 -685 -374 -782 -764 -29 -114 -27 -355 3 -471
93 -358 352 -627 708 -735 83 -26 104 -28 270 -28 159 -1 189 2 259 22 294 85
518 267 647 527 149 298 145 633 -9 928 -130 248 -341 419 -622 504 -73 22
-108 26 -245 29 -118 3 -178 -1 -229 -12z m344 -19 c166 -25 279 -69 416 -161
203 -136 357 -365 410 -610 23 -106 23 -302 0 -409 -68 -314 -300 -591 -595
-708 -127 -51 -235 -72 -371 -72 -270 1 -504 98 -695 290 -138 137 -231 306
-271 490 -23 107 -23 303 0 409 98 449 497 777 956 785 30 0 98 -6 150 -14z"/>
<path d="M877 1922 c-15 -16 -17 -56 -18 -327 l-1 -309 26 -23 c34 -29 67 -29
94 0 21 22 22 33 22 186 0 120 3 162 12 159 6 -2 41 -58 78 -123 70 -125 101
-156 146 -147 31 6 58 41 126 167 30 55 59 99 64 98 5 -2 10 -74 12 -160 4
-215 -17 -200 253 -184 167 9 230 30 293 97 62 65 81 116 84 226 4 91 2 100
-27 161 -27 57 -48 82 -118 137 -30 24 -77 33 -208 41 -77 4 -163 11 -192 15
-39 5 -57 3 -75 -10 -12 -9 -66 -94 -119 -188 -53 -95 -101 -174 -107 -176 -6
-2 -36 43 -68 100 -88 159 -145 251 -163 265 -25 19 -95 16 -114 -5z m214
-220 c64 -114 119 -216 123 -227 6 -17 10 -13 26 23 11 24 65 127 122 228
l102 186 185 -4 c180 -3 188 -4 243 -31 66 -32 101 -70 137 -147 21 -46 26
-69 25 -140 0 -108 -26 -172 -95 -234 -74 -67 -113 -76 -316 -76 l-174 0 3
249 c2 137 2 248 0 246 -2 -1 -52 -92 -111 -201 -148 -270 -133 -270 -274 -12
-59 106 -110 199 -114 206 -4 8 -7 -99 -5 -237 l4 -251 -41 0 -41 0 0 315 0
315 43 0 42 0 116 -208z"/>
<path d="M1550 1590 c0 -178 4 -300 9 -300 15 0 16 28 13 323 -2 170 -6 277
-12 277 -6 0 -10 -113 -10 -300z"/>
<path d="M1600 1596 l0 -246 103 0 c116 0 165 16 209 68 36 44 52 96 52 172 0
79 -16 131 -57 176 -47 55 -79 66 -199 72 l-108 5 0 -247z m239 203 c22 -9 48
-30 57 -46 10 -15 21 -30 25 -33 18 -14 31 -89 27 -151 -4 -52 -12 -78 -34
-113 -16 -25 -33 -46 -37 -46 -4 0 -20 -9 -35 -20 -25 -18 -104 -27 -199 -21
l-23 1 0 219 c0 166 3 221 13 225 29 12 167 3 206 -15z"/>
</g>
</svg>
